<?xml version="1.0" encoding="UTF-8" standalone="no"?>
<!-- Created with Inkscape (http://www.inkscape.org/) -->

<svg
   version="1.1"
   id="svg2"
   xml:space="preserve"
   width="599.59186"
   height="599.59961"
   viewBox="0 0 599.59186 599.59961"
   xmlns="http://www.w3.org/2000/svg"
   xmlns:svg="http://www.w3.org/2000/svg"><defs
     id="defs6" /><g
     id="g8"
     transform="matrix(1.3333333,0,0,-1.3333333,2448.3633,66.423828)"><path
       id="path6256"
       style="fill:#000000;fill-opacity:1;fill-rule:evenodd;stroke:none;stroke-width:0.1"
       d="m -1611.4263,49.817872 c -124.1789,0 -224.8462,-100.670717 -224.8462,-224.850592 0,-124.18188 100.6673,-224.84913 224.8462,-224.84913 124.1799,0 224.8477,100.66725 224.8477,224.84913 0,124.179875 -100.6678,224.850592 -224.8477,224.850592 z m 24.0571,-77.900392 c 1.3763,-0.01326 2.7736,-0.06369 4.1895,-0.150879 l 47.3994,-2.088867 v -47.40088 h -26.4873 c -14.638,0 -29.9737,-9.060117 -29.9737,-25.100094 v -43.20997 h 54.3707 l -9.063,-57.16113 h -45.3077 v -141.50098 h -61.3403 v 141.50098 h -51.5815 v 57.16113 h 51.5815 v 42.52002 c 0,41.191211 23.5489,75.841792 66.2124,75.43067 z" /></g></svg>
