<?xml version="1.0" encoding="UTF-8" standalone="no"?>
<!-- Created with Inkscape (http://www.inkscape.org/) -->

<svg
   version="1.1"
   id="svg2"
   xml:space="preserve"
   width="599.59576"
   height="599.5976"
   viewBox="0 0 599.59576 599.5976"
   xmlns="http://www.w3.org/2000/svg"
   xmlns:svg="http://www.w3.org/2000/svg"><defs
     id="defs6" /><g
     id="g8"
     transform="matrix(1.3333333,0,0,-1.3333333,1496.1401,-336.11974)"><path
       id="path5975"
       style="fill:#000000;fill-opacity:1;fill-rule:evenodd;stroke:none;stroke-width:0.1"
       d="m -897.25885,-252.08981 c -124.17795,0 -224.84625,-100.66925 -224.84625,-224.84912 0,-124.18188 100.6683,-224.84908 224.84625,-224.84908 124.17987,0 224.85059,100.6672 224.85059,224.84908 0,124.17987 -100.67072,224.84912 -224.85059,224.84912 z m -66.12893,-81.61963 h 132.2593 c 42.48996,0 77.44043,-34.95047 77.44043,-77.44043 v -131.58106 c 0,-42.48995 -34.95047,-77.44043 -77.44043,-77.44043 h -132.2593 c -42.49002,0 -77.44192,34.95048 -77.44192,77.44043 v 131.58106 c 0,42.48996 34.9519,77.44043 77.44192,77.44043 z m 0.6797,-24.66943 c -29.4601,0 -53.45072,-23.99097 -53.45072,-53.46094 v -130.20557 c 0,-29.46897 23.99062,-53.45508 53.45072,-53.45508 h 130.89991 c 29.46997,0 53.44922,23.98611 53.44922,53.45508 v 130.20557 c 0,29.46997 -23.97925,53.46094 -53.44922,53.46094 z m 142.54981,-25.36084 c 8.90999,0 16.4502,-7.54021 16.4502,-16.4502 0,-8.90999 -7.54021,-16.43994 -16.4502,-16.43994 -9.58999,0 -16.45019,7.52995 -16.45019,16.43994 0,8.90999 6.8602,16.4502 16.45019,16.4502 z m -77.44043,-15.0791 h 0.67969 c 42.48996,0 78.13037,-35.63017 78.13037,-78.12012 0,-43.17596 -35.64041,-78.12745 -78.13037,-78.12745 h -0.67969 c -42.48996,0 -77.44038,34.95149 -77.44038,78.12745 0,42.48995 34.95042,78.12012 77.44038,78.12012 z m 0,-26.72022 c -28.09997,0 -51.39988,-23.29993 -51.39988,-51.3999 0,-28.78497 23.29991,-52.08545 51.39988,-52.08545 h 0.67969 c 28.09997,0 51.3999,23.30048 51.3999,52.08545 0,28.09997 -23.29993,51.3999 -51.3999,51.3999 z" /></g></svg>
