<?xml version="1.0" encoding="UTF-8" standalone="no"?>
<!-- Created with Inkscape (http://www.inkscape.org/) -->

<svg
   version="1.1"
   id="svg2"
   xml:space="preserve"
   width="599.58594"
   height="599.59766"
   viewBox="0 0 599.58594 599.59766"
   xmlns="http://www.w3.org/2000/svg"
   xmlns:svg="http://www.w3.org/2000/svg"><defs
     id="defs6" /><g
     id="g8"
     transform="matrix(1.3333333,0,0,-1.3333333,125.78711,-781.9375)"><path
       id="path6261"
       style="fill:#000000;fill-opacity:1;fill-rule:evenodd;stroke:none;stroke-width:0.1"
       d="m 130.5,-586.45314 c -124.179872,0 -224.840334,-100.66925 -224.840334,-224.84913 0,-124.18187 100.660462,-224.84913 224.840334,-224.84913 124.17988,0 224.84913,100.66726 224.84913,224.84913 0,124.17988 -100.66925,224.84913 -224.84913,224.84913 z m 59.08008,-115.3418 c 15.1917,0.22308 30.92824,-5.43117 43.8501,-18.5874 0,0 18.46975,5.16977 34.71973,15.50976 0,0 -5.91012,-19.94024 -25.8501,-32.49023 0,0 22.14929,2.94938 31.75928,8.85937 0,0 -9.60961,-19.93959 -27.32959,-27.32959 9.59999,-133.67786 -134.4195,-214.91966 -251.1093829,-148.44873 0,0 57.6100069,-2.95462 81.9799829,25.11035 0,0 -35.451172,-2.95365 -53.181154,39.8833 0,0 13.301322,-5.16996 26.591309,1.47803 0,0 -41.3612742,6.646 -45.0512705,56.12695 0,0 13.2905625,-10.34013 28.0605475,-6.64013 0,0 -45.789428,27.3206 -19.939454,76.81055 0,0 48.750231,-62.04008 118.910162,-59.83008 -7.61749,40.11558 23.16811,69.05707 56.58984,69.54785 z" /></g></svg>
