<?xml version="1.0" encoding="UTF-8" standalone="no"?>
<!-- Created with Inkscape (http://www.inkscape.org/) -->

<svg
   version="1.1"
   id="svg2"
   xml:space="preserve"
   width="599.586"
   height="599.59766"
   viewBox="0 0 599.586 599.59766"
   xmlns="http://www.w3.org/2000/svg"
   xmlns:svg="http://www.w3.org/2000/svg"><defs
     id="defs6" /><g
     id="g8"
     transform="matrix(1.3333333,0,0,-1.3333333,1377.1685,685.66678)"><path
       id="path3808"
       style="fill:#000000;fill-opacity:1;fill-rule:evenodd;stroke:none;stroke-width:0.1"
       d="m -808.03749,514.2501 c -124.17992,0 -224.83891,-100.66579 -224.83891,-224.84766 0,-124.17988 100.65899,-224.850601 224.83891,-224.850601 124.17987,0 224.85059,100.670721 224.85059,224.850601 0,124.18187 -100.67072,224.84766 -224.85059,224.84766 z m 0,-82.60401 c 78.70992,0 142.25098,-63.53973 142.25098,-142.24365 0,-78.69993 -63.54106,-142.24073 -142.25098,-142.24073 -21.65998,0 -41.86946,4.3305 -59.91944,13.00049 l -75.82028,-13.00049 10.1103,75.08936 -0.7192,1.45019 c -10.11,19.48998 -15.8906,41.8712 -15.8906,65.70118 0,78.70392 63.5393,142.24365 142.23922,142.24365 z m 0,-23.10644 c -65.69994,0 -119.12992,-53.43028 -119.12992,-119.13721 0,-23.82998 7.2206,-45.49125 18.7705,-64.26124 l -1.4399,-10.82959 -2.8901,-21.65918 -2.1695,-16.61132 17.3291,2.89013 20.22073,3.61084 12.26953,2.16944 c 17.32999,-9.39 36.10958,-14.44922 57.03956,-14.44922 65.70993,0 119.14014,53.4402 119.14014,119.14014 0,65.70693 -53.43021,119.13721 -119.14014,119.13721 z m -43.91748,-51.82032 c 4.26891,0.0427 7.28119,-3.36996 9.26806,-8.83008 l 7.22022,-18.77343 c 0,0 5.05028,-10.10979 -7.94971,-20.21778 -2.16,-1.444 -2.15994,-1.44364 -1.43994,-5.05664 2.89,-8.65999 14.43957,-34.66014 51.26953,-54.87012 3.61,-2.17 4.32946,-2.16929 7.93945,0.72071 2.89,2.88999 6.50087,6.49965 9.38086,9.38964 6.5,5.77 10.10917,7.93938 15.88916,3.60938 4.33,-2.89 8.6605,-6.49965 13.00049,-9.38965 4.33,-3.61 11.55007,-7.93987 4.33008,-16.60986 l -6.49951,-7.93946 c -9.38999,-11.54998 -17.33011,-12.26964 -29.6001,-9.38964 -46.93995,12.27998 -81.59027,45.48936 -96.76026,92.42431 -5.04999,18.05099 2.16912,33.2146 17.32911,42.60059 2.48124,1.57937 4.68214,2.31264 6.62256,2.33203 z" /></g></svg>
